{"extensionsUsed" : ["KHR_materials_transmission", "KHR_materials_clearcoat", "KHR_materials_ior", "KHR_materials_specular"], "accessors" : [{"bufferView" : 0, "byteOffset" : 0, "componentType" : 5123, "count" : 6924, "type" : "SCALAR", "max" : [4115], "min" : [0]}, {"bufferView" : 1, "byteOffset" : 0, "componentType" : 5126, "count" : 4116, "type" : "VEC3", "max" : [-0.12957432866096497, 14.754144668579102, 3.468245267868042], "min" : [-1.2507095336914062, 0, -0.18892842531204224], "name" : "POSITION"}, {"bufferView" : 1, "byteOffset" : 12, "componentType" : 5126, "count" : 4116, "type" : "VEC3", "max" : [1.0000044107437134, 0.9891479015350342, 0.9999812841415405], "min" : [-1.0000044107437134, -0.9063525199890137, -0.9999812841415405], "name" : "NORMAL"}, {"bufferView" : 0, "byteOffset" : 13848, "componentType" : 5123, "count" : 3240, "type" : "SCALAR", "max" : [914], "min" : [0]}, {"bufferView" : 2, "byteOffset" : 0, "componentType" : 5126, "count" : 915, "type" : "VEC3", "max" : [8.432806968688965, 15.7549467086792, 11.470719337463379], "min" : [-11.29561996459961, 10.908003807067871, -7.2067975997924805], "name" : "POSITION"}, {"bufferView" : 2, "byteOffset" : 12, "componentType" : 5126, "count" : 915, "type" : "VEC3", "max" : [0.9297020435333252, 0.9999719858169556, 0.910040557384491], "min" : [-0.8926690220832825, 0.22546374797821045, -0.8264092206954956], "name" : "NORMAL"}], "asset" : {"generator" : "Aspose.3D 25.2.0", "version" : "2.0"}, "buffers" : [{"uri" : "data:application/octet-stream;base64,", "byteLength" : 141084}], "bufferViews" : [{"buffer" : 0, "byteOffset" : 0, "byteLength" : 20328, "target" : 34963}, {"buffer" : 0, "byteOffset" : 20332, "byteLength" : 98784, "byteStride" : 24, "target" : 34962}, {"buffer" : 0, "byteOffset" : 119120, "byteLength" : 21960, "byteStride" : 24, "target" : 34962}], "materials" : [{"name" : "Material.004", "extensions" : {"KHR_materials_transmission" : {}, "KHR_materials_clearcoat" : {}, "KHR_materials_ior" : {"ior" : 1.52}, "KHR_materials_specular" : {"specularFactor" : 1, "specularColorFactor" : [1, 1, 1]}}, "pbrMetallicRoughness" : {"baseColorFactor" : [1, 0.14198029, 0, 1], "metallicFactor" : 0, "roughnessFactor" : 0.5}, "emissiveFactor" : [0, 0, 0], "alphaMode" : "OPAQUE", "doubleSided" : false}, {"name" : "Material.005", "extensions" : {"KHR_materials_transmission" : {}, "KHR_materials_clearcoat" : {}, "KHR_materials_ior" : {"ior" : 1.52}, "KHR_materials_specular" : {"specularFactor" : 1, "specularColorFactor" : [1, 1, 1]}}, "pbrMetallicRoughness" : {"baseColorFactor" : [0.0143105192, 0.5668098, 0.0022629532, 1], "metallicFactor" : 0, "roughnessFactor" : 0.5}, "emissiveFactor" : [0, 0, 0], "alphaMode" : "OPAQUE", "doubleSided" : false}], "meshes" : [{"primitives" : [{"attributes" : {"POSITION" : 1, "NORMAL" : 2}, "indices" : 0, "material" : 0, "mode" : 4}]}, {"primitives" : [{"attributes" : {"POSITION" : 4, "NORMAL" : 5}, "indices" : 3, "material" : 1, "mode" : 4}]}], "nodes" : [{"mesh" : 0, "name" : "BezierCurve"}, {"mesh" : 1, "name" : "BezierCurve.003"}], "scene" : 0, "scenes" : [{"nodes" : [0, 1]}]}